<svg width="51" height="51" viewBox="0 0 51 51" fill="none" xmlns="http://www.w3.org/2000/svg">
<path d="M9.76216 5.45691C7.06402 5.45691 4.8811 7.63983 4.8811 10.338C4.8811 13.0361 7.06402 15.219 9.76216 15.219C12.4603 15.219 14.6432 13.0361 14.6432 10.338C14.6432 7.63983 12.4603 5.45691 9.76216 5.45691ZM9.76216 13.592C7.97244 13.592 6.50812 12.1277 6.50812 10.338C6.50812 8.54825 7.97244 7.08393 9.76216 7.08393C11.5519 7.08393 13.0162 8.54825 13.0162 10.338C13.0162 12.1277 11.5519 13.592 9.76216 13.592Z" fill="#00093C"/>
<path d="M26.0323 9.52454H24.4053V11.1516H26.0323V9.52454Z" fill="#00093C"/>
<path d="M32.5405 9.52454H27.6594V11.1516H32.5405V9.52454Z" fill="#00093C"/>
<path d="M32.5404 12.7786H24.4053V14.4056H32.5404V12.7786Z" fill="#00093C"/>
<path d="M9.76211 39.6245H3.25403V44.5056H9.76211V39.6245ZM8.13509 42.8786H4.88105V41.2515H8.13509V42.8786Z" fill="#00093C"/>
<path d="M16.2702 39.6245H11.3892V41.2515H16.2702V39.6245Z" fill="#00093C"/>
<path d="M16.2702 42.8784H11.3892V44.5054H16.2702V42.8784Z" fill="#00093C"/>
<path d="M16.2702 46.1324H3.25403V47.7595H16.2702V46.1324Z" fill="#00093C"/>
<path d="M47.9971 28.2353H34.9809C33.6386 28.2353 32.5404 29.3335 32.5404 30.6758V36.3704H29.2864V28.9268C30.6829 28.5607 31.7269 27.2997 31.7269 25.7947C31.7269 24.2897 30.6829 23.0153 29.2864 22.6627V17.6596H33.3539C34.6962 17.6596 35.7945 16.5614 35.7945 15.2191V11.1516H39.1163C39.5095 13.4565 41.5161 15.2191 43.9296 15.2191C46.6277 15.2191 48.8106 13.0362 48.8106 10.338C48.8106 9.49742 48.5937 8.69747 48.214 8.00599L50.1936 6.02645L49.0411 4.87397L47.1971 6.71793C46.3294 5.93154 45.1769 5.44343 43.9296 5.44343C41.5161 5.44343 39.5095 7.20603 39.1163 9.51098H35.7945V5.44343C35.7945 4.10114 34.6962 3.0029 33.3539 3.0029H23.5918C22.2495 3.0029 21.1513 4.10114 21.1513 5.44343V9.51098H19.5242V8.07378L17.382 7.49076C17.3142 7.30094 17.2329 7.12468 17.1515 6.93486L18.2497 5.00956L15.0771 1.83687L13.1517 2.93511C12.9619 2.85376 12.7857 2.7724 12.5958 2.70461L12.0128 0.575928H7.51141L6.9284 2.71817C6.73858 2.78596 6.56232 2.86731 6.3725 2.94867L4.44719 1.85043L1.2745 5.02312L2.37274 6.94842C2.29139 7.13824 2.21004 7.3145 2.14224 7.50432L0 8.08734V12.5888L2.14224 13.1718C2.21004 13.3616 2.29139 13.5379 2.37274 13.7277L1.2745 15.653L4.44719 18.8257L6.3725 17.7274C6.56232 17.8088 6.73858 17.8901 6.9284 17.9579L7.51141 20.0866H8.94861V33.1028H2.44053C1.09824 33.1028 0 34.201 0 35.5433V48.5595C0 49.9018 1.09824 51 2.44053 51H17.0837C18.426 51 19.5242 49.9018 19.5242 48.5595V35.5433C19.5242 34.201 18.426 33.1028 17.0837 33.1028H10.5756V20.0866H12.0128L12.5958 17.9444C12.7857 17.8766 12.9619 17.7952 13.1517 17.7139L15.0771 18.8121L18.2633 15.6394L17.1651 13.7141C17.2464 13.5243 17.3278 13.348 17.3956 13.1582L19.5242 12.5752V11.138H21.1513V15.2056C21.1513 16.5478 22.2495 17.6461 23.5918 17.6461H27.6593V22.6492C26.2628 23.0152 25.2188 24.2762 25.2188 25.7812C25.2188 27.2997 26.2628 28.5607 27.6593 28.9132V37.9838H32.5404V43.6784C32.5404 45.0207 33.6386 46.1189 34.9809 46.1189H47.9971C49.3394 46.1189 50.4376 45.0207 50.4376 43.6784V30.6622C50.4376 29.32 49.3394 28.2353 47.9971 28.2353ZM43.9296 7.08401C44.7431 7.08401 45.4752 7.39585 46.0447 7.88396L43.9296 9.99909L42.872 8.94152L41.7195 10.094L43.916 12.2905L46.9667 9.23981C47.0887 9.57877 47.17 9.94485 47.17 10.3245C47.17 12.1142 45.7057 13.5785 43.916 13.5785C42.1263 13.5785 40.662 12.1142 40.662 10.3245C40.662 8.53477 42.1398 7.08401 43.9296 7.08401ZM17.0837 49.3865H2.44053C1.9931 49.3865 1.62702 49.0205 1.62702 48.573V37.9974H17.8972V48.573C17.8972 49.0205 17.5311 49.3865 17.0837 49.3865ZM17.8972 35.5569V36.3704H1.62702V35.5569C1.62702 35.1094 1.9931 34.7434 2.44053 34.7434H17.0837C17.5311 34.7434 17.8972 35.1094 17.8972 35.5569ZM17.8972 11.3414L16.1075 11.8295L15.9719 12.2498C15.8499 12.6294 15.7007 12.9955 15.5109 13.3616L15.3076 13.7548L16.2295 15.3683L14.8059 16.8055L13.1924 15.8835L12.7992 16.0869C12.4331 16.2767 12.0535 16.4394 11.6874 16.5478L11.2671 16.6834L10.779 18.4596H8.77235L8.28425 16.6699L7.86393 16.5343C7.48429 16.4123 7.11821 16.2631 6.75213 16.0733L6.35894 15.8699L4.74548 16.7919L3.32183 15.3683L4.24381 13.7548L4.04043 13.3616C3.85061 12.9955 3.68791 12.6159 3.57944 12.2498L3.44386 11.8295L1.6677 11.3414V9.33472L3.45742 8.84661L3.593 8.4263C3.71503 8.04666 3.86417 7.68058 4.05399 7.3145L4.25737 6.92131L3.33539 5.30784L4.75904 3.8842L6.3725 4.80618L6.76569 4.6028C7.13177 4.41298 7.51141 4.25028 7.87749 4.14181L8.29781 4.00623L8.78591 2.21651H10.7926L11.2807 4.00623L11.701 4.14181C12.0806 4.26384 12.4467 4.41298 12.8128 4.6028L13.206 4.80618L14.8194 3.8842L16.2431 5.30784L15.3211 6.92131L15.5245 7.3145C15.7143 7.68058 15.877 8.06022 15.9855 8.4263L16.1211 8.84661L17.9108 9.33472L17.8972 11.3414ZM23.5918 4.64348H33.3539C33.8014 4.64348 34.1674 5.00956 34.1674 5.45699V6.2705H22.7783V5.45699C22.7783 5.00956 23.1444 4.64348 23.5918 4.64348ZM22.7783 15.2191V7.89752H34.1674V15.2191C34.1674 15.6665 33.8014 16.0326 33.3539 16.0326H23.5918C23.1444 16.0326 22.7783 15.6665 22.7783 15.2191ZM26.8458 25.7947C26.8458 24.8999 27.578 24.1677 28.4729 24.1677C29.3677 24.1677 30.0999 24.8999 30.0999 25.7947C30.0999 26.6896 29.3677 27.4218 28.4729 27.4218C27.578 27.4218 26.8458 26.6896 26.8458 25.7947ZM34.9809 29.8623H47.9971C48.4445 29.8623 48.8106 30.2284 48.8106 30.6758V31.4893H34.1674V30.6758C34.1674 30.2284 34.5335 29.8623 34.9809 29.8623ZM47.9971 44.5055H34.9809C34.5335 44.5055 34.1674 44.1394 34.1674 43.692V33.1163H48.8106V43.692C48.8106 44.1394 48.4445 44.5055 47.9971 44.5055Z" fill="#00093C"/>
<path d="M40.6755 34.7433H35.7944V39.6243H40.6755V34.7433ZM39.0485 37.9973H37.4215V36.3703H39.0485V37.9973Z" fill="#00093C"/>
<path d="M47.1836 34.7433H42.3025V36.3703H47.1836V34.7433Z" fill="#00093C"/>
<path d="M47.1836 37.9973H42.3025V39.6243H47.1836V37.9973Z" fill="#00093C"/>
<path d="M47.1836 41.2515H35.7944V42.8785H47.1836V41.2515Z" fill="#00093C"/>
</svg>
