<svg width="83" height="71" viewBox="0 0 83 71" fill="none" xmlns="http://www.w3.org/2000/svg">
<path d="M16.4671 70.6464C7.38524 70.6464 0 63.2611 0 54.1793C0 45.0974 7.38524 37.7122 16.4671 37.7122C25.549 37.7122 32.9342 45.0974 32.9342 54.1793C32.9342 63.311 25.549 70.6464 16.4671 70.6464Z" fill="#00093C"/>
<path d="M16.4671 70.6464C7.38524 70.6464 0 63.2611 0 54.1793C0 45.0974 7.38524 37.7122 16.4671 37.7122C25.549 37.7122 32.9342 45.0974 32.9342 54.1793C32.9342 63.311 25.549 70.6464 16.4671 70.6464Z" fill="#00093C"/>
<path d="M55.3895 1.8336L37.5251 31.0253C37.0261 31.8736 37.575 32.9215 38.5232 32.9215H56.3875H74.2518C75.1999 32.9215 75.7488 31.8237 75.2498 31.0253L57.3855 1.8336C56.8865 1.08509 55.8386 1.08509 55.3895 1.8336Z" fill="#00093C"/>
<path d="M32.5847 6.77396L26.1475 0.336827C25.6984 -0.112276 24.9 -0.112276 24.4509 0.336827L17.3651 7.42267C16.916 7.87177 16.1176 7.87177 15.6685 7.42267L8.58263 0.336827C8.13353 -0.112276 7.33513 -0.112276 6.88602 0.336827L0.448888 6.77396C-0.000215136 7.22307 -0.000215136 8.02147 0.448888 8.47058L7.53472 15.5564C7.98382 16.0055 7.98382 16.8039 7.53472 17.253L0.448888 24.3389C-0.000215136 24.788 -0.000215136 25.5864 0.448888 26.0355L6.88602 32.4726C7.33513 32.9217 8.13353 32.9217 8.58263 32.4726L15.6685 25.3868C16.1176 24.9377 16.916 24.9377 17.3651 25.3868L24.4509 32.4726C24.9 32.9217 25.6984 32.9217 26.1475 32.4726L32.5847 26.0355C33.0338 25.5864 33.0338 24.788 32.5847 24.3389L25.4988 17.253C25.0497 16.8039 25.0497 16.0055 25.4988 15.5564L32.5847 8.47058C33.0837 8.02147 33.0837 7.27297 32.5847 6.77396Z" fill="#00093C"/>
<path d="M38.7964 63.4471V65.5429H42.4391V66.99H38.7964V69.8344H37V62H42.8882V63.4471H38.7964Z" fill="black"/>
<path d="M44.9481 69.0359C44.3493 68.4371 44 67.5389 44 66.3912V62H45.7964V66.2914C45.7964 67.6886 46.3952 68.3872 47.5429 68.3872C48.0918 68.3872 48.5409 68.2375 48.8403 67.8882C49.1397 67.5389 49.2894 67.0399 49.2894 66.2914V62H51.0858V66.3912C51.0858 67.5389 50.7864 68.4371 50.1377 69.0359C49.5389 69.6347 48.6407 69.984 47.5429 69.984C46.4451 69.984 45.5469 69.6347 44.9481 69.0359Z" fill="black"/>
<path d="M54.495 63.497H52V62H58.7864V63.497H56.2914V69.8344H54.495V63.497Z" fill="black"/>
<path d="M60.9481 69.0359C60.3493 68.4371 60 67.5389 60 66.3912V62H61.7964V66.2914C61.7964 67.6886 62.3952 68.3872 63.5429 68.3872C64.0918 68.3872 64.5409 68.2375 64.8403 67.8882C65.1397 67.5389 65.2894 67.0399 65.2894 66.2914V62H67.0858V66.3912C67.0858 67.5389 66.7864 68.4371 66.1377 69.0359C65.5389 69.6347 64.6407 69.984 63.5429 69.984C62.4451 69.984 61.5968 69.6347 60.9481 69.0359Z" fill="black"/>
<path d="M72.99 69.7844L71.493 67.5888H71.3932H69.7964V69.7844H68V62H71.3932C72.0918 62 72.6906 62.0998 73.1896 62.3493C73.6886 62.5988 74.0878 62.8982 74.3872 63.3473C74.6367 63.7465 74.7864 64.2954 74.7864 64.8443C74.7864 65.4431 74.6367 65.9421 74.3872 66.3413C74.0878 66.7405 73.6886 67.0898 73.1896 67.2894L74.9361 69.7844H72.99V69.7844ZM72.5409 63.7964C72.2415 63.5469 71.8423 63.4471 71.2934 63.4471H69.7964V66.1916H71.2934C71.8423 66.1916 72.2415 66.0918 72.5409 65.8423C72.8403 65.5928 72.9401 65.2934 72.9401 64.8443C72.99 64.3453 72.8403 64.0459 72.5409 63.7964Z" fill="black"/>
<path d="M82.0379 68.3872V69.8344H76V62H81.8882V63.4471H77.7964V65.1437H81.3892V66.5908H77.7964V68.3872H82.0379Z" fill="black"/>
<path d="M44.0858 54.8344V50.1437L41.7904 53.986H40.992L38.6966 50.2435V54.8344H37V47H38.497L41.3912 51.8403L44.2854 47H45.7825V54.8344H44.0858Z" fill="black"/>
<path d="M51.8403 52.0399V54.8344H50.0439V52.0399L47 47H48.9461L51.0419 50.493L53.0878 47H54.8842L51.8403 52.0399Z" fill="black"/>
</svg>
