<svg width="72" height="59" viewBox="0 0 72 59" fill="none" xmlns="http://www.w3.org/2000/svg">
<path d="M13.6694 58.6626C6.13054 58.6626 0 52.5321 0 44.9932C0 37.4543 6.13054 31.3237 13.6694 31.3237C21.2083 31.3237 27.3389 37.4543 27.3389 44.9932C27.3389 52.5735 21.2083 58.6626 13.6694 58.6626Z" fill="white"/>
<path d="M13.6694 58.6626C6.13054 58.6626 0 52.5321 0 44.9932C0 37.4543 6.13054 31.3237 13.6694 31.3237C21.2083 31.3237 27.3389 37.4543 27.3389 44.9932C27.3389 52.5735 21.2083 58.6626 13.6694 58.6626Z" fill="white"/>
<path d="M45.9791 1.54071L31.1498 25.7729C30.7356 26.4771 31.1912 27.3469 31.9783 27.3469H46.8075H61.6368C62.4238 27.3469 62.8795 26.4357 62.4652 25.7729L47.636 1.54071C47.2218 0.919373 46.3519 0.919373 45.9791 1.54071Z" fill="white"/>
<path d="M27.0487 5.64166L21.7052 0.298157C21.3324 -0.074646 20.6697 -0.074646 20.2969 0.298157L14.4149 6.18016C14.0421 6.55296 13.3793 6.55296 13.0065 6.18016L7.12449 0.298157C6.75168 -0.074646 6.08893 -0.074646 5.71612 0.298157L0.37262 5.64166C-0.000183128 6.01446 -0.000183128 6.67723 0.37262 7.05003L6.25461 12.932C6.62741 13.3048 6.62741 13.9676 6.25461 14.3404L0.37262 20.2224C-0.000183128 20.5952 -0.000183128 21.258 0.37262 21.6308L5.71612 26.9743C6.08893 27.3471 6.75168 27.3471 7.12449 26.9743L13.0065 21.0923C13.3793 20.7195 14.0421 20.7195 14.4149 21.0923L20.2969 26.9743C20.6697 27.3471 21.3324 27.3471 21.7052 26.9743L27.0487 21.6308C27.4215 21.258 27.4215 20.5952 27.0487 20.2224L21.1667 14.3404C20.7939 13.9676 20.7939 13.3048 21.1667 12.932L27.0487 7.05003C27.463 6.67723 27.463 6.05589 27.0487 5.64166Z" fill="white"/>
<path d="M33.4912 52.2013V53.941H36.5151V55.1423H33.4912V57.5033H32V51H36.8879V52.2013H33.4912Z" fill="white"/>
<path d="M38.9179 56.8406C38.4208 56.3435 38.1309 55.5979 38.1309 54.6452V51H39.6221V54.5623C39.6221 55.7222 40.1191 56.3021 41.0719 56.3021C41.5275 56.3021 41.9003 56.1778 42.1488 55.8879C42.3974 55.5979 42.5217 55.1837 42.5217 54.5623V51H44.0129V54.6452C44.0129 55.5979 43.7643 56.3435 43.2258 56.8406C42.7288 57.3377 41.9832 57.6276 41.0719 57.6276C40.1606 57.6276 39.415 57.3377 38.9179 56.8406Z" fill="white"/>
<path d="M46.995 52.2427H44.9238V51H50.5573V52.2427H48.4862V57.5033H46.995V52.2427Z" fill="white"/>
<path d="M52.2557 56.8406C51.7586 56.3435 51.4686 55.5979 51.4686 54.6452V51H52.9598V54.5623C52.9598 55.7222 53.4569 56.3021 54.4096 56.3021C54.8653 56.3021 55.2381 56.1778 55.4866 55.8879C55.7351 55.5979 55.8594 55.1837 55.8594 54.5623V51H57.3506V54.6452C57.3506 55.5979 57.1021 56.3435 56.5636 56.8406C56.0665 57.3377 55.3209 57.6276 54.4096 57.6276C53.4983 57.6276 52.7941 57.3377 52.2557 56.8406Z" fill="white"/>
<path d="M63.2327 57.5037L61.99 55.6811H61.9072H60.5817V57.5037H59.0905V51.0417H61.9072C62.4871 51.0417 62.9842 51.1246 63.3984 51.3317C63.8126 51.5388 64.144 51.7874 64.3925 52.1602C64.5996 52.4915 64.7239 52.9472 64.7239 53.4028C64.7239 53.8999 64.5996 54.3141 64.3925 54.6455C64.144 54.9769 63.8126 55.2668 63.3984 55.4325L64.8482 57.5037H63.2327ZM62.8599 52.533C62.6114 52.3258 62.28 52.243 61.8243 52.243H60.5817V54.5212H61.8243C62.28 54.5212 62.6114 54.4384 62.8599 54.2313C63.1084 54.0242 63.1913 53.7756 63.1913 53.4028C63.2327 52.9886 63.1084 52.7401 62.8599 52.533Z" fill="white"/>
<path d="M71.2273 56.3021V57.5033H66.2152V51H71.1031V52.2013H67.7064V53.6096H70.6888V54.8109H67.7064V56.3021H71.2273Z" fill="white"/>
<path d="M37.882 44.5033V40.6096L35.9766 43.7992H35.3138L33.4084 40.6925V44.5033H32V38H33.2427L35.6452 42.018L38.0477 38H39.2904V44.5033H37.882Z" fill="white"/>
<path d="M44.018 42.1837V44.5033H42.5268V42.1837L40 38H41.6155L43.3552 40.8996L45.0536 38H46.5448L44.018 42.1837Z" fill="white"/>
</svg>
